# xmcd
#
# Track frame offsets:
#	150
#	12537
#	25503
#	37886
#	50344
#	58910
#	70967
#	83735
#	96422
#	109264
#	119864
#	130353
#	141976
#	155617
#	167065
#	177814
#	189124
#	199858
#	212573
#	223494
#	236073
#	247833
#	258561
#	269428
#
# Disc length: 3768 seconds
# Revision: 2
# Processed by: cddbd v1.5.2PL0 Copyright (c) Steve Scherf et al.
# Submitted via: dBpowerAMP V12.0
#
DISCID=6b0eb618
DTITLE=Hank Williams - I Saw The Light (1955) - Ramblin' Man (1955)
DYEAR=1955
DGENRE=Country
TTITLE0=I Saw The Light
TTITLE1=Calling You
TTITLE2=Dear Brother
TTITLE3=Wealth Won't Save Your Soul
TTITLE4=I'm Gonna Sing
TTITLE5=Message To My Mother
TTITLE6=How Can You Refuse Him Now
TTITLE7=When God Comes And Gather's His Jewels
TTITLE8=Jesus Remembered Me
TTITLE9=House Of Gold
TTITLE10=Thank God
TTITLE11=Angel Of Death
TTITLE12=Ramblin' Man
TTITLE13=My Son Calls Another Man Daddy
TTITLE14=I Can't Escape From You
TTITLE15=Nobody's Lonesome For Me
TTITLE16=I Can't Help It (If I'm Still In Love With You)
TTITLE17=There'll Be No Teardrops Tonight
TTITLE18=(I Heard That) Lonesome Whistle
TTITLE19=I Just Don't Like This Kind Of Livin'
TTITLE20=Take These Chains From My Heart
TTITLE21=Why Don't You Love Me
TTITLE22=My Heart Would Know
TTITLE23=Your're Gonna Change (Or I'm Gonna Leave)
EXTD=
EXTT0=
EXTT1=
EXTT2=
EXTT3=
EXTT4=
EXTT5=
EXTT6=
EXTT7=
EXTT8=
EXTT9=
EXTT10=
EXTT11=
EXTT12=
EXTT13=
EXTT14=
EXTT15=
EXTT16=
EXTT17=
EXTT18=
EXTT19=
EXTT20=
EXTT21=
EXTT22=
EXTT23=
PLAYORDER=
